# xmcd
#
# Track frame offsets:
#        150
#        28610
#        55358
#        90114
#        125752
#        156276
#        181262
#        214620
#        250609
#        285355
#
# Disc length: 4255 seconds
#
# Revision: 0
# Processed by: cddbd v1.5.1PL0 Copyright (c) Steve Scherf et al.
# Submitted via: ExactAudioCopy v0.95a5
#
DISCID=7d109d0a
DTITLE=Various Artist - Soulful House Sessions Disc 2
DYEAR=2004
DGENRE=House
TTITLE0=Jaded [House Mix]
TTITLE1=Rock Wit U [Yoruba Soul Mix]
TTITLE2=Space Rider [DJ Spinna Mix]
TTITLE3=Right by Your Side [Restless Soul Peaktime Mix]
TTITLE4=Everyday
TTITLE5=Can't Stop [Rp's Club Mix]
TTITLE6=Sometimes [MAW Mix]
TTITLE7=Believe [Sot's Original Version]
TTITLE8=Photographs [Restless Soul Remix]
TTITLE9=I Think of You [Restless Soul Inspiration Remix]
EXTD=
EXTT0=
EXTT1=
EXTT2=
EXTT3=
EXTT4=
EXTT5=
EXTT6=
EXTT7=
EXTT8=
EXTT9=
PLAYORDER=
